# xmcd
# Track frame offsets:
# 150
# 15505
# 31302
# 48520
# 63312
# 81367
# 102855
# 117637
# 133797
# 151930
# 166992
# 183822
#
# Disc length: 2672 seconds
# Revision: 0
# Processed by: cddbd v1.4PL0 Copyright (c) Steve Scherf et al.
# Submitted via: VisiTrax 2.9.5.181 - For more info visit www.synapsa.com
#
DISCID=960a6e0c
DTITLE=Blind Lemon - Feel good
DYEAR=1900
DGENRE=Blues
TTITLE0=Blow your own trumpet
TTITLE1=Hard to be king
TTITLE2=Here she comes
TTITLE3=Worse things
TTITLE4=Colour of your heart
TTITLE5=Tiny little space
TTITLE6=Get back
TTITLE7=The last to know
TTITLE8=Feel good
TTITLE9=She´s a devil
TTITLE10=Maybe im going
TTITLE11=Sleep
EXTD=
EXTT0=
EXTT1=
EXTT2=
EXTT3=
EXTT4=
EXTT5=
EXTT6=
EXTT7=
EXTT8=
EXTT9=
EXTT10=
EXTT11=
PLAYORDER=
